<svg version="1.1" xmlns="http://www.w3.org/2000/svg" xmlns:xlink="http://www.w3.org/1999/xlink" width="512.000000pt" height="512.000000pt" viewBox="0,0,256,256"><g fill-opacity="0.47843" fill="#000000" fill-rule="nonzero" stroke="none" stroke-width="1" stroke-linecap="butt" stroke-linejoin="miter" stroke-miterlimit="10" stroke-dasharray="" stroke-dashoffset="0" font-family="none" font-weight="none" font-size="none" text-anchor="none" style="mix-blend-mode: normal"><g transform="translate(0.00556,-0.03404) scale(0.5,0.5)"><g transform="translate(0,512) scale(0.1,-0.1)"><path d="M3816,5110c-290,-46 -562,-215 -720,-447l-49,-72l-76,-6c-451,-38 -814,-277 -1004,-660c-85,-172 -118,-309 -123,-510l-3,-140l-203,-121c-136,-82 -210,-132 -225,-153c-12,-17 -29,-65 -39,-106c-10,-41 -21,-79 -24,-85c-5,-8 -36,-8 -109,0c-96,10 -105,10 -146,-10c-50,-24 -78,-71 -97,-163l-12,-59l-51,6c-154,17 -169,17 -205,-1c-47,-24 -74,-69 -95,-154l-18,-71l-41,6c-131,18 -185,18 -234,2c-60,-20 -133,-81 -157,-133c-20,-42 -95,-454 -95,-521c0,-50 27,-102 62,-120c54,-28 506,-172 541,-172c21,0 48,5 60,11c12,7 367,218 789,470c422,253 771,459 776,459c4,0 23,-36 41,-79l33,-79l-137,-182c-75,-100 -143,-198 -151,-217c-13,-30 -13,-49 -3,-129c7,-52 10,-96 7,-99c-3,-3 -45,-17 -94,-32c-110,-32 -138,-51 -160,-108c-15,-40 -15,-54 -5,-121c7,-42 11,-78 8,-80c-2,-2 -44,-16 -93,-30c-104,-30 -128,-43 -154,-87c-21,-34 -25,-95 -11,-180l8,-47l-71,-20c-159,-46 -209,-78 -250,-159c-43,-85 -42,-106 18,-375c59,-265 70,-292 132,-321c34,-16 51,-16 283,-1c281,19 305,22 338,43c13,8 278,357 589,775l567,759l71,-8c118,-13 304,-8 396,11c472,97 821,439 937,918c14,57 18,113 17,258c0,166 -3,195 -26,280c-15,52 -29,102 -32,111c-5,10 7,25 39,48c202,145 362,416 405,684c20,121 8,330 -24,442c-54,183 -133,321 -264,457c-200,208 -440,315 -727,323c-71,2 -157,0 -189,-5zM4096,4939c362,-50 667,-334 748,-696c25,-113 22,-289 -8,-406c-40,-157 -117,-295 -228,-407c-71,-71 -110,-100 -115,-84c-14,43 -125,186 -207,268c-91,91 -102,106 -123,169c-54,160 -142,304 -262,430c-150,158 -355,280 -555,332c-55,14 -101,27 -103,28c-7,7 101,127 151,167c205,166 448,235 702,199zM3237,4396c223,-47 435,-172 576,-341c58,-70 133,-183 125,-190c-2,-2 -42,9 -88,25c-155,53 -221,64 -400,63c-117,0 -186,-5 -238,-16c-484,-110 -836,-464 -932,-937c-23,-112 -29,-321 -12,-412l9,-47l-794,-476l-794,-476l-215,71c-200,67 -215,74 -210,94c3,11 19,104 36,206c17,102 38,195 46,208c25,38 55,43 179,31c62,-7 129,-9 148,-5c44,8 92,61 107,116c5,22 14,57 20,78l9,37l104,-9c125,-11 151,-5 193,40c25,26 37,52 49,110l17,75l118,-7c109,-6 121,-5 152,14c45,28 57,52 84,156c12,49 29,94 36,101c7,7 108,69 225,139c117,70 216,132 220,139c4,7 8,89 9,182c1,224 26,334 113,502c155,295 443,496 776,542c87,12 241,6 332,-13zM3705,3756c189,-49 390,-172 512,-313c50,-57 133,-179 133,-194c0,-16 -169,-69 -266,-83l-41,-6l-12,43c-78,263 -434,327 -596,107c-53,-72 -68,-126 -63,-223c7,-127 70,-225 183,-285c45,-24 61,-27 150,-27c89,0 106,3 150,27c57,29 134,107 153,153c12,30 16,31 118,48c57,9 144,30 192,47c48,17 91,32 96,33c5,1 18,-29 29,-68c16,-57 20,-103 21,-245c1,-154 -2,-185 -22,-260c-100,-366 -375,-640 -739,-737c-84,-22 -119,-26 -248,-26c-105,-1 -169,4 -214,15c-71,18 -94,13 -128,-23c-11,-13 -274,-364 -583,-779c-310,-415 -563,-756 -564,-756c-5,-6 -442,-30 -447,-25c-4,3 -27,98 -52,210c-62,275 -67,262 130,321c164,49 196,92 174,236c-6,42 -10,78 -9,79c2,1 39,12 83,24c112,32 142,48 166,88c20,32 21,43 15,132l-7,98l98,29c109,32 157,69 168,127c4,19 0,76 -7,128l-14,94l158,214c101,136 158,221 158,237c0,13 -20,63 -44,111c-85,169 -111,296 -104,504c5,117 11,161 32,234c116,388 440,674 831,735c106,16 298,5 410,-24zM3753,3269c37,-10 107,-69 107,-91c0,-16 -80,-3 -172,28c-43,14 -78,30 -78,35c0,12 58,38 85,39c11,0 37,-5 58,-11zM3710,3021c46,-11 93,-21 103,-21c17,0 17,-2 6,-16c-40,-48 -143,-60 -200,-21c-35,24 -79,81 -79,103c0,10 10,9 43,-5c24,-10 81,-28 127,-40z"></path><path d="M1310,2359c-377,-226 -695,-420 -707,-432c-51,-46 -12,-137 58,-137c25,0 196,98 723,414c380,227 699,422 709,433c23,26 22,74 -4,107c-45,57 -34,62 -779,-385z"></path><path d="M2873,1988c-11,-13 -267,-354 -569,-758c-403,-540 -549,-744 -552,-767c-3,-26 2,-39 26,-63c38,-38 73,-39 111,-2c17,15 276,358 578,762c500,672 547,738 547,774c1,28 -6,43 -23,57c-33,27 -92,25 -118,-3z"></path></g></g></g></svg>