<svg version="1.1" xmlns="http://www.w3.org/2000/svg" xmlns:xlink="http://www.w3.org/1999/xlink" width="512.000000pt" height="512.000000pt" viewBox="0,0,256,256"><g fill-opacity="0.50196" fill="#000000" fill-rule="nonzero" stroke="none" stroke-width="1" stroke-linecap="butt" stroke-linejoin="miter" stroke-miterlimit="10" stroke-dasharray="" stroke-dashoffset="0" font-family="none" font-weight="none" font-size="none" text-anchor="none" style="mix-blend-mode: normal"><g transform="translate(-0.10413,0.05164) scale(0.5,0.5)"><g transform="translate(0,512) scale(0.1,-0.1)"><path d="M2370,5114c-19,-2 -78,-9 -130,-15c-282,-32 -627,-140 -880,-275c-111,-60 -313,-195 -420,-281c-108,-87 -276,-255 -363,-363c-306,-380 -490,-807 -558,-1300c-17,-123 -18,-516 -1,-635c84,-592 328,-1088 733,-1494c406,-406 901,-648 1494,-733c119,-17 512,-16 635,1c580,80 1087,330 1490,733c464,465 723,1063 747,1723c13,391 -63,781 -223,1137c-54,121 -139,272 -166,297c-47,44 -128,27 -153,-32c-18,-43 -11,-70 40,-156c131,-222 239,-540 282,-826c24,-166 24,-515 -1,-673c-23,-146 -65,-320 -111,-452c-76,-219 -239,-512 -385,-690c-60,-74 -261,-280 -272,-280c-5,0 -8,7 -8,15c0,9 -16,66 -36,128c-181,564 -640,972 -1226,1089c-162,32 -434,32 -596,0c-605,-121 -1079,-557 -1242,-1142c-13,-47 -25,-87 -27,-89c-7,-9 -194,184 -267,274c-361,444 -546,1003 -522,1575c15,379 110,721 289,1045c357,647 989,1086 1727,1201c160,25 519,25 678,0c393,-61 730,-198 1040,-421c69,-50 103,-67 128,-68c70,-2 120,69 94,133c-7,17 -40,51 -79,79c-350,258 -746,418 -1191,481c-78,11 -459,21 -520,14zM2730,1849c464,-57 872,-343 1079,-757c51,-102 104,-259 124,-366l15,-78l-107,-70c-273,-178 -597,-300 -943,-354c-172,-28 -529,-25 -703,4c-343,59 -654,178 -916,351l-107,70l15,78c97,524 496,948 1019,1086c170,45 353,58 524,36z"></path><path d="M4351,4286c-87,-48 -50,-186 49,-186c51,0 100,49 100,99c0,75 -83,124 -149,87z"></path><path d="M2380,4041c-339,-74 -601,-323 -691,-656c-18,-65 -22,-107 -22,-225c0,-118 4,-160 22,-225c88,-324 340,-570 668,-652c103,-26 323,-23 428,6c317,85 560,329 646,646c18,65 22,107 22,225c0,118 -4,160 -22,225c-86,317 -333,564 -646,646c-116,30 -294,35 -405,10zM2693,3846c212,-41 395,-182 491,-378c101,-207 101,-409 -1,-618c-38,-79 -60,-109 -132,-181c-72,-72 -102,-94 -181,-132c-209,-102 -411,-102 -620,0c-79,38 -109,60 -181,132c-71,71 -94,102 -133,181c-101,206 -101,414 0,620c39,79 62,110 133,181c71,71 102,94 181,133c146,72 287,91 443,62z"></path></g></g></g></svg>